<svg width="182" height="182" viewBox="0 0 182 182" fill="none" xmlns="http://www.w3.org/2000/svg">
<path d="M136.193 136.193C161.266 111.121 161.266 70.4704 136.193 45.3979C111.121 20.3253 70.4703 20.3253 45.3978 45.3979C20.3253 70.4704 20.3253 111.121 45.3978 136.193C70.4703 161.266 111.121 161.266 136.193 136.193Z" fill="#88CBFF"/>
<path d="M137.932 123.727C144.462 114.399 148.294 103.043 148.294 90.7917C148.294 59.0385 122.554 33.2981 90.8005 33.2981C79.2275 33.2981 68.453 36.7181 59.4323 42.6016" stroke="black" stroke-width="2" stroke-miterlimit="10" stroke-linecap="round"/>
<path d="M44.3113 56.9556C37.3901 66.4486 33.3053 78.1434 33.3053 90.7918C33.3053 122.545 59.0457 148.285 90.7989 148.285C102.413 148.285 113.222 144.841 122.262 138.92C122.382 138.842 122.503 138.762 122.621 138.683" stroke="black" stroke-width="2" stroke-miterlimit="10" stroke-linecap="round"/>
<path d="M109.76 107.9C109.77 107.87 109.78 107.83 109.78 107.8V102.83C109.78 102.28 109.33 101.84 108.79 101.84H92.87V95.87C92.87 95.85 92.86 95.84 92.86 95.82C97.27 95.56 101.41 93.58 104.38 90.31C104.45 90.25 104.5 90.19 104.55 90.12C108.95 85.14 110.03 78.03 107.29 71.97C104.56 65.9 98.53 62 91.88 62C85.23 62 79.19 65.9 76.46 71.96C73.72 78.02 74.8 85.12 79.2 90.11C79.25 90.18 79.31 90.25 79.37 90.3C82.34 93.58 86.47 95.56 90.89 95.81C90.89 95.83 90.88 95.84 90.88 95.86V101.83H74.96C74.41 101.83 73.97 102.28 73.97 102.82V105.8C73.97 105.83 73.98 105.85 73.99 105.88C70.37 106.39 67.76 109.62 68.02 113.27C68.28 116.92 71.31 119.74 74.97 119.74C78.63 119.74 81.66 116.91 81.92 113.27C82.18 109.62 79.57 106.4 75.95 105.88C75.96 105.85 75.96 105.83 75.97 105.8V103.81H90.89V109.78C90.89 109.81 90.9 109.83 90.91 109.86C87.29 110.37 84.68 113.6 84.94 117.25C85.2 120.9 88.23 123.72 91.89 123.72C95.55 123.72 98.58 120.89 98.84 117.25C99.1 113.6 96.49 110.38 92.87 109.86C92.88 109.83 92.88 109.81 92.89 109.78V103.81H107.81V107.79C107.81 107.82 107.82 107.86 107.83 107.89C105.32 108.39 103.6 110.71 103.85 113.26C104.1 115.8 106.24 117.74 108.8 117.74C111.36 117.74 113.5 115.8 113.75 113.26C113.99 110.72 112.27 108.4 109.76 107.9ZM91.88 64.03C97.38 64.03 102.44 67.05 105.04 71.9C107.64 76.75 107.35 82.64 104.3 87.22C103.3 83.4 100.63 80.24 97.02 78.62C98.24 77.39 98.9 75.71 98.84 73.98C98.84 70.13 95.72 67.02 91.88 67.02C88.03 67.02 84.92 70.14 84.92 73.98C84.86 75.71 85.52 77.39 86.74 78.62C83.14 80.23 80.46 83.4 79.46 87.22C76.41 82.64 76.12 76.75 78.72 71.9C81.32 67.05 86.37 64.02 91.88 64.03ZM81.07 89.21C81.6 84.76 84.79 81.08 89.12 79.91C89.52 79.81 89.83 79.48 89.88 79.06C89.93 78.65 89.72 78.25 89.35 78.05C87.78 77.3 86.82 75.69 86.9 73.96C86.9 71.23 89.13 69 91.88 69C94.63 69 96.85 71.23 96.85 73.97C96.93 75.7 95.97 77.32 94.4 78.06C94.03 78.25 93.82 78.65 93.87 79.07C93.92 79.48 94.22 79.82 94.63 79.92C98.96 81.08 102.15 84.76 102.68 89.22C99.87 92.19 95.97 93.88 91.88 93.88C87.79 93.88 83.88 92.19 81.07 89.21ZM79.94 112.78C79.94 114.79 78.73 116.61 76.87 117.38C75.01 118.15 72.87 117.72 71.45 116.3C70.03 114.88 69.6 112.74 70.37 110.88C71.14 109.02 72.95 107.81 74.97 107.81C77.71 107.8 79.93 110.03 79.94 112.78ZM96.85 116.75C96.85 118.76 95.64 120.58 93.78 121.35C91.92 122.12 89.78 121.69 88.36 120.27C86.94 118.85 86.51 116.71 87.28 114.85C88.05 112.99 89.86 111.78 91.88 111.78C94.62 111.78 96.85 114.01 96.85 116.75ZM108.79 115.76C107.58 115.76 106.49 115.03 106.03 113.92C105.57 112.81 105.82 111.52 106.68 110.67C107.53 109.82 108.82 109.56 109.93 110.02C111.05 110.48 111.77 111.57 111.77 112.78C111.77 114.42 110.44 115.76 108.79 115.76Z" fill="black"/>
</svg>
