<svg width="182" height="182" viewBox="0 0 182 182" fill="none" xmlns="http://www.w3.org/2000/svg">
<path d="M136.193 136.193C161.266 111.121 161.266 70.4704 136.193 45.3979C111.121 20.3253 70.4704 20.3253 45.3978 45.3979C20.3253 70.4704 20.3253 111.121 45.3978 136.193C70.4704 161.266 111.121 161.266 136.193 136.193Z" fill="#88CBFF"/>
<path d="M137.932 123.727C144.462 114.4 148.294 103.043 148.294 90.7918C148.294 59.0386 122.554 33.2982 90.8004 33.2982C79.2274 33.2982 68.453 36.7182 59.4322 42.6018" stroke="black" stroke-width="2" stroke-miterlimit="10" stroke-linecap="round"/>
<path d="M44.3113 56.9556C37.3901 66.4486 33.3053 78.1434 33.3053 90.7918C33.3053 122.545 59.0457 148.285 90.7989 148.285C102.413 148.285 113.222 144.841 122.262 138.92C122.382 138.842 122.503 138.762 122.621 138.683" stroke="black" stroke-width="2" stroke-miterlimit="10" stroke-linecap="round"/>
<path d="M150 158.244C171.663 140.756 146.802 97.8774 107.116 118.576C83.8047 130.733 120.202 182.298 150 158.244Z" fill="#4050A5"/>
<path d="M130.738 148.36C130.306 148.36 129.85 148.328 129.37 148.264C128.89 148.216 128.426 148.144 127.978 148.048C127.53 147.952 127.122 147.848 126.754 147.736C126.386 147.624 126.098 147.52 125.89 147.424L126.586 144.448C127.002 144.624 127.53 144.816 128.17 145.024C128.826 145.216 129.634 145.312 130.594 145.312C131.698 145.312 132.506 145.104 133.018 144.688C133.53 144.272 133.786 143.712 133.786 143.008C133.786 142.576 133.69 142.216 133.498 141.928C133.322 141.624 133.074 141.384 132.754 141.208C132.434 141.016 132.05 140.888 131.602 140.824C131.17 140.744 130.706 140.704 130.21 140.704H128.818V137.824H130.402C130.754 137.824 131.09 137.792 131.41 137.728C131.746 137.664 132.042 137.56 132.298 137.416C132.554 137.256 132.754 137.048 132.898 136.792C133.058 136.52 133.138 136.184 133.138 135.784C133.138 135.48 133.074 135.216 132.946 134.992C132.818 134.768 132.65 134.584 132.442 134.44C132.25 134.296 132.018 134.192 131.746 134.128C131.49 134.048 131.226 134.008 130.954 134.008C130.266 134.008 129.626 134.112 129.034 134.32C128.458 134.528 127.93 134.784 127.45 135.088L126.178 132.472C126.434 132.312 126.73 132.144 127.066 131.968C127.418 131.792 127.802 131.632 128.218 131.488C128.634 131.344 129.074 131.224 129.538 131.128C130.018 131.032 130.522 130.984 131.05 130.984C132.026 130.984 132.866 131.104 133.57 131.344C134.29 131.568 134.882 131.896 135.346 132.328C135.81 132.744 136.154 133.24 136.378 133.816C136.602 134.376 136.714 134.992 136.714 135.664C136.714 136.32 136.53 136.96 136.162 137.584C135.794 138.192 135.298 138.656 134.674 138.976C135.538 139.328 136.202 139.856 136.666 140.56C137.146 141.248 137.386 142.08 137.386 143.056C137.386 143.824 137.258 144.536 137.002 145.192C136.746 145.832 136.346 146.392 135.802 146.872C135.258 147.336 134.562 147.704 133.714 147.976C132.882 148.232 131.89 148.36 130.738 148.36Z" fill="white"/>
<path d="M118.06 67H95.37C94.88 67 94.49 67.39 94.49 67.88C94.49 68.37 94.88 68.76 95.37 68.76H117.17V73.17H64.76V68.76H86.56C87.05 68.76 87.44 68.36 87.44 67.88C87.44 67.4 87.05 67 86.56 67H63.88C63.39 67 63 67.39 63 67.88V74.05C63 74.54 63.39 74.93 63.88 74.93H64.54V111.27C64.54 111.76 64.93 112.15 65.42 112.15H90.09V116.9L89.94 116.95C88.71 117.39 87.88 118.55 87.88 119.86C87.88 121.56 89.26 122.94 90.96 122.94C92.66 122.94 94.04 121.56 94.04 119.86C94.04 118.56 93.21 117.39 91.98 116.95L91.83 116.9V112.15H116.5C116.99 112.15 117.38 111.76 117.38 111.27V74.93H118.04C118.53 74.93 118.92 74.53 118.92 74.05V67.88C118.94 67.39 118.54 67 118.06 67ZM92.29 119.85C92.29 120.58 91.7 121.17 90.97 121.17C90.24 121.17 89.65 120.58 89.65 119.85C89.65 119.12 90.24 118.53 90.97 118.53C91.7 118.53 92.29 119.12 92.29 119.85ZM115.63 110.38H66.3V74.93H115.63V110.38Z" fill="black"/>
<path d="M69.83 91.33H82.16C82.65 91.33 83.04 90.93 83.04 90.45V80.21C83.04 79.72 82.65 79.33 82.16 79.33H69.83C69.34 79.33 68.95 79.73 68.95 80.21V90.45C68.95 90.94 69.34 91.33 69.83 91.33ZM70.71 81.09H81.28V89.57H70.71V81.09Z" fill="black"/>
<path d="M69.83 105.98H82.16C82.65 105.98 83.04 105.59 83.04 105.1V94.86C83.04 94.37 82.65 93.98 82.16 93.98H69.83C69.34 93.98 68.95 94.38 68.95 94.86V105.1C68.95 105.58 69.34 105.98 69.83 105.98ZM70.71 95.74H81.28V104.22H70.71V95.74Z" fill="black"/>
<path d="M99.78 91.33H112.11C112.6 91.33 112.99 90.93 112.99 90.45V80.21C112.99 79.72 112.6 79.33 112.11 79.33H99.78C99.29 79.33 98.9 79.73 98.9 80.21V90.45C98.9 90.94 99.29 91.33 99.78 91.33ZM100.66 81.09H111.23V89.57H100.66V81.09Z" fill="black"/>
<path d="M99.78 105.98H112.11C112.6 105.98 112.99 105.59 112.99 105.1V94.86C112.99 94.37 112.6 93.98 112.11 93.98H99.78C99.29 93.98 98.9 94.38 98.9 94.86V105.1C98.9 105.58 99.29 105.98 99.78 105.98ZM100.66 95.74H111.23V104.22H100.66V95.74Z" fill="black"/>
<path d="M86.58 105.98H95.39C95.88 105.98 96.27 105.59 96.27 105.1V80.21C96.27 79.72 95.88 79.33 95.39 79.33H86.58C86.09 79.33 85.7 79.73 85.7 80.21V105.1C85.7 105.58 86.09 105.98 86.58 105.98ZM87.46 81.09H94.51V104.21H87.46V81.09Z" fill="black"/>
<path d="M91.59 68.5C91.75 68.34 91.85 68.11 91.85 67.88C91.85 67.65 91.76 67.42 91.59 67.26C91.43 67.09 91.2 67 90.97 67C90.74 67 90.51 67.09 90.35 67.26C90.19 67.42 90.09 67.65 90.09 67.88C90.09 68.11 90.18 68.34 90.35 68.5C90.67 68.83 91.26 68.83 91.59 68.5Z" fill="black"/>
</svg>
