<svg width="172" height="155" viewBox="0 0 172 155" fill="none" xmlns="http://www.w3.org/2000/svg">
<path d="M72.6924 16.1624C55.0749 16.1624 38.7795 21.4416 26.8114 31.0269" stroke="black" stroke-width="2" stroke-miterlimit="10" stroke-linecap="round"/>
<path d="M133.621 128.51C146.097 123.099 155.609 115.299 160.556 105.812" stroke="black" stroke-width="0.944333" stroke-miterlimit="10" stroke-linecap="round" stroke-dasharray="0.79 0.79"/>
<path d="M139.294 39.5125C221.454 91.264 46.5198 175.792 9.79445 102.152C-16.7063 49.0154 72.2481 -2.71859 139.294 39.5125Z" stroke="black" stroke-width="2" stroke-miterlimit="10" stroke-linecap="round"/>
<path d="M21.197 62.9574C-34.1666 142.241 160.538 163.27 159.753 73.2922C159.231 13.3292 66.3754 -1.74081 21.197 62.9574Z" fill="#88CBFF"/>
<path d="M22.8633 34.4885C17.2971 39.8372 13.1042 46.0623 10.3649 52.9975" stroke="black" stroke-width="2" stroke-miterlimit="10" stroke-linecap="round" stroke-dasharray="0.79 0.79"/>
<path d="M145.572 32.4564C145.572 34.2 146.985 35.6127 148.729 35.6127C150.472 35.6127 151.885 34.2 151.885 32.4564C151.885 30.7128 150.472 29.3 148.729 29.3C146.985 29.3 145.572 30.7128 145.572 32.4564Z" stroke="black" stroke-width="2" stroke-miterlimit="10" stroke-linecap="round"/>
<path d="M9.74689 121.488L9.13345 120.875" stroke="black" stroke-width="2" stroke-miterlimit="10" stroke-linecap="round"/>
<path d="M14.0394 125.779L13.426 125.166" stroke="black" stroke-width="2" stroke-miterlimit="10" stroke-linecap="round"/>
<path d="M13.426 121.488L14.0394 120.875" stroke="black" stroke-width="2" stroke-miterlimit="10" stroke-linecap="round"/>
<path d="M9.13345 125.779L9.74689 125.166" stroke="black" stroke-width="2" stroke-miterlimit="10" stroke-linecap="round"/>
<path d="M21.8042 55.3547C-37.8732 131.676 105.312 178.531 149.776 84.5943C176.577 27.969 70.908 -7.44422 21.8042 55.3547Z" stroke="black" stroke-width="2" stroke-miterlimit="10" stroke-linecap="round"/>
<path d="M56 60.3V58.44H93.21C94.24 58.44 95.07 59.27 95.07 60.3H98.79V57.51C98.79 53.91 101.71 51 105.3 51C108.89 51 111.82 53.92 111.82 57.51V74.26C111.82 77.86 108.9 80.77 105.31 80.77C101.72 80.77 98.8 77.85 98.8 74.26V62.16H95.08C95.08 63.19 94.25 64.02 93.22 64.02H56.01V62.16H88.56V60.3H56ZM109.96 57.51C109.96 54.94 107.88 52.86 105.31 52.86C102.74 52.86 100.66 54.94 100.66 57.51V62.16H109.96V57.51ZM100.66 74.26C100.66 76.83 102.74 78.91 105.31 78.91C107.88 78.91 109.96 76.83 109.96 74.26V64.02H100.66V74.26ZM90.42 62.16H93.21V60.3H90.42V62.16Z" fill="black"/>
<path d="M106.24 73.33H108.1V75.19H106.24V73.33Z" fill="black"/>
<path d="M102.52 73.33H104.38V75.19H102.52V73.33Z" fill="black"/>
<path d="M106.24 69.61H108.1V71.47H106.24V69.61Z" fill="black"/>
<path d="M102.52 69.61H104.38V71.47H102.52V69.61Z" fill="black"/>
<path d="M106.24 65.89H108.1V67.75H106.24V65.89Z" fill="black"/>
<path d="M102.52 65.89H104.38V67.75H102.52V65.89Z" fill="black"/>
<path d="M61.58 68.68V104.03C61.58 104.54 62 104.96 62.51 104.96H71.82C72.33 104.96 72.75 104.54 72.75 104.03V101.24C71.21 101.24 69.96 99.99 69.96 98.45V94.73H69.03C67.49 94.73 66.24 93.48 66.24 91.94V84.5C65.21 84.5 64.38 83.67 64.38 82.64V81.7C64.38 72.97 71.46 65.88 80.2 65.88C88.94 65.88 96 72.97 96 81.7V82.63C96 83.66 95.17 84.49 94.14 84.49V91.93C94.14 93.47 92.89 94.72 91.35 94.72H90.42V98.44C90.42 99.98 89.17 101.23 87.63 101.23H85.77C84.23 101.23 82.98 99.98 82.98 98.44V89.14C82.98 87.6 84.23 86.35 85.77 86.35H87.63C89.17 86.35 90.42 87.6 90.42 89.14V92.86H91.35C91.86 92.86 92.28 92.44 92.28 91.93V84.49H91.35C89.81 84.49 88.56 83.24 88.56 81.7C88.56 77.08 84.81 73.33 80.19 73.33C75.57 73.33 71.82 77.08 71.82 81.7C71.82 83.24 70.57 84.49 69.03 84.49H68.1V91.93C68.1 92.44 68.52 92.86 69.03 92.86H69.96V89.14C69.96 87.6 71.21 86.35 72.75 86.35H74.61C76.15 86.35 77.4 87.6 77.4 89.14V98.44C77.4 99.98 76.15 101.23 74.61 101.23V104.02C74.61 105.56 73.36 106.81 71.82 106.81H62.52C60.98 106.81 59.73 105.56 59.73 104.02V68.68C59.73 68.17 59.31 67.75 58.8 67.75H56.01V65.89H58.8C60.33 65.89 61.58 67.14 61.58 68.68ZM88.56 89.14C88.56 88.63 88.14 88.21 87.63 88.21H85.77C85.26 88.21 84.84 88.63 84.84 89.14V98.44C84.84 98.95 85.26 99.37 85.77 99.37H87.63C88.14 99.37 88.56 98.95 88.56 98.44V89.14ZM69.96 81.7C69.96 76.05 74.54 71.47 80.19 71.47C85.84 71.47 90.42 76.05 90.42 81.7C90.42 82.21 90.84 82.63 91.35 82.63H94.14V81.7C94.14 73.99 87.89 67.75 80.19 67.75C72.49 67.75 66.24 74 66.24 81.7V82.63H69.03C69.54 82.63 69.95 82.21 69.96 81.7ZM75.54 98.45V89.15C75.54 88.64 75.12 88.22 74.61 88.22H72.75C72.24 88.22 71.82 88.64 71.82 89.15V98.45C71.82 98.96 72.24 99.38 72.75 99.38H74.61C75.12 99.38 75.54 98.96 75.54 98.45Z" fill="black"/>
<path d="M113.404 110.635C89.8445 144.421 168.499 162.314 168.165 123.97C167.944 98.4163 132.63 83.0633 113.404 110.635Z" fill="#4050A5"/>
<path d="M139.836 118.344C139.212 119.16 138.548 120.048 137.844 121.008C137.14 121.968 136.548 122.952 136.068 123.96H139.836V118.344ZM143.34 113.976V123.96H145.116V126.888H143.34V130.608H139.836V126.888H132.66V124.272C133.012 123.568 133.452 122.776 133.98 121.896C134.508 121 135.092 120.088 135.732 119.16C136.388 118.216 137.076 117.296 137.796 116.4C138.516 115.504 139.236 114.696 139.956 113.976H143.34Z" fill="white"/>
</svg>
