<svg width="410" height="396" viewBox="0 0 410 396" fill="none" xmlns="http://www.w3.org/2000/svg">
<path d="M0 46H410V386C410 391.523 405.523 396 400 396H9.99999C4.47714 396 0 391.523 0 386V46Z" fill="white"/>
<path d="M166.555 23C116.479 23 12.7869 34.6739 0 36.9164V47H410V23C397.284 29.5436 358.849 35.4977 325.43 35.4977C290.195 35.4977 226.5 23 166.555 23Z" fill="white"/>
<path opacity="0.33" d="M242.852 23C292.806 23 396.246 42.5455 409.002 44.788V47H-0.000488281V23C12.6842 29.5436 36.2209 35.4977 58.4817 35.4977C138.108 35.4977 183.053 23 242.852 23Z" fill="white"/>
</svg>
