<svg width="300" height="105" viewBox="0 0 300 105" fill="none" xmlns="http://www.w3.org/2000/svg">
<path d="M0 17H300V95C300 100.523 295.523 105 290 105H10C4.47716 105 0 100.523 0 95V17Z" fill="white"/>
<path d="M121.869 0.438965C85.2288 0.438965 9.35627 8.98084 0 10.6217V17.9999H300V0.438965C290.696 5.22698 262.573 9.58362 238.119 9.58362C212.338 9.58362 165.732 0.438965 121.869 0.438965Z" fill="white"/>
<path opacity="0.33" d="M177.697 0.438965C214.248 0.438965 289.936 14.7406 299.27 16.3814V17.9999H-0.000549316V0.438965C9.28094 5.22698 26.5029 9.58362 42.7913 9.58362C101.054 9.58362 133.941 0.438965 177.697 0.438965Z" fill="white"/>
</svg>
