<svg width="79" height="77" viewBox="0 0 79 77" fill="none" xmlns="http://www.w3.org/2000/svg">
<path d="M60.9137 59.2438C82.5769 41.756 57.7157 -1.12252 18.0298 19.5757C-5.28123 31.7335 31.1161 83.298 60.9137 59.2438Z" fill="#88CBFF"/>
<path d="M52.0851 32.8977C52.0851 31.137 50.5316 29.5835 48.7709 29.5835H35.4106C33.65 29.5835 32.0964 31.137 32.0964 32.8977V46.258C32.0964 48.0187 33.65 49.5722 35.4106 49.5722H42.1426V42.0117H39.6569V38.6975H42.1426V37.3511C42.1426 35.0726 43.7997 33.1048 45.871 33.1048H48.5638V36.419H45.871C45.5603 36.419 45.2496 36.7297 45.2496 37.3511V38.6975H48.5638V42.0117H45.2496V49.5722H48.7709C50.5316 49.5722 52.0851 48.0187 52.0851 46.258V32.8977Z" fill="white"/>
</svg>
