<svg width="178" height="69" viewBox="0 0 178 69" fill="none" xmlns="http://www.w3.org/2000/svg">
<circle cx="40.9337" cy="32.4787" r="30" fill="#88CBFF"/>
<path d="M75.7402 40.9394C73.0062 55.4449 55.3962 64.7153 35.9413 61.0484C16.4864 57.3815 3.45937 42.3366 6.19339 27.8311C8.92741 13.3256 26.5374 4.05517 45.9923 7.72205C65.4472 11.3889 78.4743 26.4338 75.7402 40.9394Z" stroke="#041032" stroke-width="2"/>
<path d="M50.9337 32.4787L36.9337 40.4787L36.9337 24.4787L50.9337 32.4787Z" fill="white"/>
<path d="M93.4572 29.485C95.0072 29.485 96.1972 29.76 97.0272 30.31C97.8572 30.85 98.2722 31.74 98.2722 32.98C98.2722 34.23 97.8522 35.135 97.0122 35.695C96.1722 36.245 94.9722 36.52 93.4122 36.52H92.6772V40H90.3372V29.755C90.8472 29.655 91.3872 29.585 91.9572 29.545C92.5272 29.505 93.0272 29.485 93.4572 29.485ZM93.6072 31.48C93.4372 31.48 93.2672 31.485 93.0972 31.495C92.9372 31.505 92.7972 31.515 92.6772 31.525V34.525H93.4122C94.2222 34.525 94.8322 34.415 95.2422 34.195C95.6522 33.975 95.8572 33.565 95.8572 32.965C95.8572 32.675 95.8022 32.435 95.6922 32.245C95.5922 32.055 95.4422 31.905 95.2422 31.795C95.0522 31.675 94.8172 31.595 94.5372 31.555C94.2572 31.505 93.9472 31.48 93.6072 31.48ZM106.936 37.99V40H99.9905V29.605H102.331V37.99H106.936ZM115.871 40C115.761 39.64 115.636 39.27 115.496 38.89C115.366 38.51 115.236 38.13 115.106 37.75H111.056C110.926 38.13 110.791 38.51 110.651 38.89C110.521 39.27 110.401 39.64 110.291 40H107.861C108.251 38.88 108.621 37.845 108.971 36.895C109.321 35.945 109.661 35.05 109.991 34.21C110.331 33.37 110.661 32.575 110.981 31.825C111.311 31.065 111.651 30.325 112.001 29.605H114.236C114.576 30.325 114.911 31.065 115.241 31.825C115.571 32.575 115.901 33.37 116.231 34.21C116.571 35.05 116.916 35.945 117.266 36.895C117.616 37.845 117.986 38.88 118.376 40H115.871ZM113.066 31.96C113.016 32.11 112.941 32.315 112.841 32.575C112.741 32.835 112.626 33.135 112.496 33.475C112.366 33.815 112.221 34.19 112.061 34.6C111.911 35.01 111.756 35.44 111.596 35.89H114.551C114.391 35.44 114.236 35.01 114.086 34.6C113.936 34.19 113.791 33.815 113.651 33.475C113.521 33.135 113.406 32.835 113.306 32.575C113.206 32.315 113.126 32.11 113.066 31.96ZM122.038 33.88C122.458 33.17 122.858 32.46 123.238 31.75C123.618 31.04 123.968 30.325 124.288 29.605H126.868C126.298 30.725 125.708 31.81 125.098 32.86C124.488 33.91 123.843 34.965 123.163 36.025V40H120.823V36.055C120.143 34.995 119.493 33.935 118.873 32.875C118.263 31.815 117.673 30.725 117.103 29.605H119.818C120.138 30.325 120.483 31.04 120.853 31.75C121.223 32.46 121.618 33.17 122.038 33.88ZM134.838 40C134.428 39.13 134.023 38.225 133.623 37.285C133.223 36.345 132.843 35.415 132.483 34.495C132.123 33.575 131.788 32.695 131.478 31.855C131.178 31.015 130.918 30.265 130.698 29.605H133.278C133.478 30.205 133.693 30.855 133.923 31.555C134.163 32.245 134.403 32.935 134.643 33.625C134.893 34.315 135.133 34.975 135.363 35.605C135.593 36.235 135.808 36.78 136.008 37.24C136.198 36.78 136.408 36.235 136.638 35.605C136.878 34.975 137.118 34.315 137.358 33.625C137.608 32.935 137.848 32.245 138.078 31.555C138.318 30.855 138.538 30.205 138.738 29.605H141.228C140.998 30.265 140.733 31.015 140.433 31.855C140.133 32.695 139.803 33.575 139.443 34.495C139.083 35.415 138.703 36.345 138.303 37.285C137.903 38.225 137.498 39.13 137.088 40H134.838ZM142.574 29.605H144.914V40H142.574V29.605ZM149.66 38.095C149.77 38.105 149.895 38.115 150.035 38.125C150.185 38.125 150.36 38.125 150.56 38.125C151.73 38.125 152.595 37.83 153.155 37.24C153.725 36.65 154.01 35.835 154.01 34.795C154.01 33.705 153.74 32.88 153.2 32.32C152.66 31.76 151.805 31.48 150.635 31.48C150.475 31.48 150.31 31.485 150.14 31.495C149.97 31.495 149.81 31.505 149.66 31.525V38.095ZM156.425 34.795C156.425 35.695 156.285 36.48 156.005 37.15C155.725 37.82 155.325 38.375 154.805 38.815C154.295 39.255 153.67 39.585 152.93 39.805C152.19 40.025 151.36 40.135 150.44 40.135C150.02 40.135 149.53 40.115 148.97 40.075C148.41 40.045 147.86 39.975 147.32 39.865V29.74C147.86 29.64 148.42 29.575 149 29.545C149.59 29.505 150.095 29.485 150.515 29.485C151.405 29.485 152.21 29.585 152.93 29.785C153.66 29.985 154.285 30.3 154.805 30.73C155.325 31.16 155.725 31.71 156.005 32.38C156.285 33.05 156.425 33.855 156.425 34.795ZM158.379 40V29.605H165.399V31.57H160.719V33.61H164.874V35.53H160.719V38.035H165.744V40H158.379ZM169.177 34.795C169.177 35.305 169.237 35.765 169.357 36.175C169.487 36.585 169.667 36.94 169.897 37.24C170.137 37.53 170.427 37.755 170.767 37.915C171.107 38.075 171.497 38.155 171.937 38.155C172.367 38.155 172.752 38.075 173.092 37.915C173.442 37.755 173.732 37.53 173.962 37.24C174.202 36.94 174.382 36.585 174.502 36.175C174.632 35.765 174.697 35.305 174.697 34.795C174.697 34.285 174.632 33.825 174.502 33.415C174.382 32.995 174.202 32.64 173.962 32.35C173.732 32.05 173.442 31.82 173.092 31.66C172.752 31.5 172.367 31.42 171.937 31.42C171.497 31.42 171.107 31.505 170.767 31.675C170.427 31.835 170.137 32.065 169.897 32.365C169.667 32.655 169.487 33.01 169.357 33.43C169.237 33.84 169.177 34.295 169.177 34.795ZM177.112 34.795C177.112 35.685 176.977 36.47 176.707 37.15C176.447 37.82 176.087 38.385 175.627 38.845C175.167 39.295 174.617 39.635 173.977 39.865C173.347 40.095 172.667 40.21 171.937 40.21C171.227 40.21 170.557 40.095 169.927 39.865C169.297 39.635 168.747 39.295 168.277 38.845C167.807 38.385 167.437 37.82 167.167 37.15C166.897 36.47 166.762 35.685 166.762 34.795C166.762 33.905 166.902 33.125 167.182 32.455C167.462 31.775 167.837 31.205 168.307 30.745C168.787 30.285 169.337 29.94 169.957 29.71C170.587 29.48 171.247 29.365 171.937 29.365C172.647 29.365 173.317 29.48 173.947 29.71C174.577 29.94 175.127 30.285 175.597 30.745C176.067 31.205 176.437 31.775 176.707 32.455C176.977 33.125 177.112 33.905 177.112 34.795Z" fill="#041032"/>
</svg>
