<svg width="91" height="90" viewBox="0 0 91 90" fill="none" xmlns="http://www.w3.org/2000/svg">
<ellipse cx="45.8394" cy="45" rx="29.927" ry="30" fill="#EF5E42"/>
<path d="M78.5979 52.647C76.0584 67.5125 59.5138 77.3667 41.3241 74.2442C23.1345 71.1217 10.8034 56.3107 13.3428 41.4452C15.8822 26.5798 32.4269 16.7256 50.6165 19.8481C68.8061 22.9705 81.1373 37.7816 78.5979 52.647Z" stroke="#041032" stroke-width="2"/>
<path opacity="0.33" d="M90.2299 45C90.2299 69.5778 70.3545 89.5 45.8394 89.5C21.3244 89.5 1.44891 69.5778 1.44891 45C1.44891 20.4222 21.3244 0.5 45.8394 0.5C70.3545 0.5 90.2299 20.4222 90.2299 45Z" stroke="#EF5E42"/>
<path d="M55.5657 46.0933L39.854 55.1865L39.854 37L55.5657 46.0933Z" fill="white"/>
</svg>
